<svg width="30" height="30" viewBox="0 0 30 30" fill="none" xmlns="http://www.w3.org/2000/svg">
<rect x="0.05" y="0.05" width="29.9" height="29.9" rx="4.95" stroke="black" stroke-opacity="0.01" stroke-width="0.1"/>
<path d="M11.1492 3.1397L8.55279 4.43789C8.214 4.60728 8 4.95355 8 5.33232V26C8 26.5523 8.44772 27 9 27H23C23.5523 27 24 26.5523 24 26V14.7399C24 14.2356 23.6245 13.8102 23.124 13.7476L20.3045 13.3952C19.8041 13.3327 19.4286 12.9073 19.4286 12.4029V5.01015C19.4286 4.5125 19.0626 4.09058 18.57 4.0202L11.7378 3.04418C11.5364 3.01541 11.3311 3.04873 11.1492 3.1397Z" fill="#6D8752" stroke="#6D8752"/>
</svg>
